<svg viewBox="0 0 280 280" fill="none" xmlns="http://www.w3.org/2000/svg"><g transform="translate(40, 36)"><path d="M100 0C69.072 0 44 25.072 44 56v6.166c-5.675.952-10 5.888-10 11.834v14c0 6.052 4.48 11.058 10.305 11.881 2.067 19.806 14.458 36.541 31.695 44.73V163h-4c-39.764 0-72 32.236-72 72v9h200v-9c0-39.764-32.236-72-72-72h-4v-18.389c17.237-8.189 29.628-24.924 31.695-44.73C161.52 99.058 166 94.052 166 88V74c0-5.946-4.325-10.882-10-11.834V56c0-30.928-25.072-56-56-56z" fill="#F9D562"/><path d="M76 144.611v8A55.79 55.79 0 00100 158a55.789 55.789 0 0024-5.389v-8A55.789 55.789 0 01100 150a55.79 55.79 0 01-24-5.389z" fill="#000" fill-opacity=".1"/></g><g transform="translate(8, 170)"><path d="M92.68 29.936C58.295 35.366 32 65.138 32 101.052V110h200v-8.948c0-35.914-26.294-65.686-60.681-71.116a23.874 23.874 0 01-7.555 13.603l-29.085 26.229a4 4 0 01-5.358 0l-29.085-26.229a23.871 23.871 0 01-7.555-13.603z" fill="#FF488E"/></g><g transform="translate(86, 134)"><path fill-rule="evenodd" clip-rule="evenodd" d="M40 29c0-7.732 6.268-14 14-14s14 6.268 14 14" fill="#000" fill-opacity=".7"/></g><g transform="translate(112, 122)"><path fill-rule="evenodd" clip-rule="evenodd" d="M16 8c0 4.418 5.373 8 12 8s12-3.582 12-8" fill="#000" fill-opacity=".16"/></g><g transform="translate(84, 90)"><path d="M34.5 30.7L29 25.2l-5.5 5.5c-.4.4-1.1.4-1.6 0l-1.6-1.6c-.4-.4-.4-1.1 0-1.6l5.5-5.5-5.5-5.5c-.4-.5-.4-1.2 0-1.6l1.6-1.6c.4-.4 1.1-.4 1.6 0l5.5 5.5 5.5-5.5c.4-.4 1.1-.4 1.6 0l1.6 1.6c.4.4.4 1.1 0 1.6L32.2 22l5.5 5.5c.4.4.4 1.1 0 1.6l-1.6 1.6c-.4.4-1.1.4-1.6 0zm54 0L83 25.2l-5.5 5.5c-.4.4-1.1.4-1.6 0l-1.6-1.6c-.4-.4-.4-1.1 0-1.6l5.5-5.5-5.5-5.5c-.4-.5-.4-1.2 0-1.6l1.6-1.6c.4-.4 1.1-.4 1.6 0l5.5 5.5 5.5-5.5c.4-.4 1.1-.4 1.6 0l1.6 1.6c.4.4.4 1.1 0 1.6L86.2 22l5.5 5.5c.4.4.4 1.1 0 1.6l-1.6 1.6c-.4.4-1.1.4-1.6 0z" fill="#000" fill-opacity=".6"/></g><g transform="translate(84, 82)"><path fill-rule="evenodd" clip-rule="evenodd" d="M22.766 1.578l.911-.402C28.92-.905 36.865-.033 41.723 2.299c.567.272.18 1.153-.402 1.108-14.919-1.151-24.963 8.146-28.375 14.44-.101.187-.407.208-.482.034-2.308-5.319 4.45-13.985 10.302-16.303zM86.993 12.07c5.761.773 14.746 5.795 13.994 11.607-.024.19-.312.25-.436.091-2.487-3.188-21.712-7.872-28.713-6.894-.641.09-1.064-.571-.627-.984 3.744-3.536 10.62-4.518 15.782-3.82z" fill="#000" fill-opacity=".6"/></g><g transform="translate(7, 0)"><path fill-rule="evenodd" clip-rule="evenodd" d="M88.183 37.856c5.141-3.832 11.219-7.116 17.559-8.378 6.447-1.282 10.359-1.593 16.705-.073 1.633.392 2.184.78 3.621-.148 1.211-.783 9.662-9.49 35.42-4.657 26.035 4.885 33.769 44.075 43.427 45.566 3.48.537 7.782-.384 7.916-2.527 3.964 6.034 5.008 14.007 3.327 21.074-1.446 6.086-4.496 11.804-9.989 15.137-4.725 2.867-11.259 4.116-16.721 3.587-2.485-.24-4.745-.763-7.031-1.766-2.759-1.209-4.957-3.391-7.665-4.543a53.896 53.896 0 009.176 6.418c1.64.907 3.304 1.532 5.113 2.024 1.236.336 3.762 1.481 4.956 1.182-7.807 1.396-15.16.18-22.319-3.163-3.231-1.508-6.339-3.332-9.191-5.476-2.833-2.13-6.094-4.307-8.311-7.11.931 1.204-.697-.586-.912-.805a67.764 67.764 0 01-1.787-1.895 74.075 74.075 0 01-2.931-3.391c-1.993-2.486-3.851-5.082-5.507-7.803-1.677-2.756-8.358-13.873-10.375-16.49 1.905 5.708 3.98 11.418 6.407 16.925-4.713-1.47-9.283-5.544-12.295-9.34-3.392-4.276-5.4-9.268-6.108-14.666-3.825 10.416-12.785 18.63-22.032 24.295 2.003-3.73 5.056-6.885 7.052-10.678-9.19 9.329-24.568 13.893-28.595 27.574-1.032-4.758-4.353-8.58-5.347-13.433-1.105-5.389-1.897-11.11-1.722-16.616.398-12.242 8.632-23.723 18.16-30.824z" fill="#724133"/></g></svg>